<svg xmlns="http://www.w3.org/2000/svg" version="1.1" xmlns:xlink="http://www.w3.org/1999/xlink" xmlns:svgjs="http://svgjs.dev/svgjs" viewBox="0 0 800 800"><defs><linearGradient x1="50%" y1="0%" x2="50%" y2="100%" id="ffflurry-grad" gradientTransform="rotate(270)"><stop stop-color="#03001c" stop-opacity="1" offset="0%"></stop><stop stop-color="hsl(162, 100%, 58%)" stop-opacity="1" offset="45%"></stop><stop stop-color="hsl(270, 73%, 53%)" stop-opacity="1" offset="100%"></stop></linearGradient></defs><rect width="100%" height="100%" fill="#03001c"></rect><g fill="url(#ffflurry-grad)"><rect width="2364" height="1" x="-595" y="120.5" rx="0.5" transform="rotate(31, 587, 121)" opacity="0.81"></rect><rect width="728" height="1" x="-173" y="82.5" rx="0.5" transform="rotate(31, 191, 83)" opacity="0.19"></rect><rect width="300" height="1" x="67" y="546.5" rx="0.5" transform="rotate(31, 217, 547)" opacity="0.60"></rect><rect width="2710" height="1" x="-964" y="330.5" rx="0.5" transform="rotate(31, 391, 331)" opacity="0.30"></rect><rect width="641" height="1" x="249.5" y="686.5" rx="0.5" transform="rotate(31, 570, 687)" opacity="0.86"></rect><rect width="176" height="1" x="590" y="447.5" rx="0.5" transform="rotate(31, 678, 448)" opacity="0.94"></rect><rect width="1187" height="1" x="-536.5" y="533.5" rx="0.5" transform="rotate(31, 57, 534)" opacity="0.28"></rect><rect width="244" height="1" x="-24" y="219.5" rx="0.5" transform="rotate(31, 98, 220)" opacity="0.64"></rect><rect width="526" height="1" x="61" y="663.5" rx="0.5" transform="rotate(31, 324, 664)" opacity="0.77"></rect><rect width="1538" height="1" x="-670" y="718.5" rx="0.5" transform="rotate(31, 99, 719)" opacity="0.29"></rect><rect width="1234" height="1" x="-479" y="379.5" rx="0.5" transform="rotate(31, 138, 380)" opacity="0.65"></rect></g></svg>