<svg xmlns="http://www.w3.org/2000/svg" version="1.1" xmlns:xlink="http://www.w3.org/1999/xlink" xmlns:svgjs="http://svgjs.dev/svgjs" viewBox="0 0 800 800" opacity="0.24"><defs><linearGradient x1="50%" y1="0%" x2="50%" y2="100%" id="uundulate-grad"><stop stopColor="hsl(162, 100%, 58%)" stop-opacity="1" offset="45%"></stop><stop stopColor="hsl(270, 73%, 53%)" stop-opacity="1" offset="100%"></stop></linearGradient></defs><g strokeWidth="1" stroke="url(#uundulate-grad)" fill="none"><path d="M5596.7450776387395 -3468.534719011537C6260.725515141876 -29.25210293922828 6177.125844918277 1411.5609072926636 5119.828277645191 4750.970554047977C4062.5307103721025 8090.380200803291 2341.7431619761983 12613.38852219078 521.7167547279114 12560.631585413976C-1298.3096525203746 12507.874648637171 -2422.7442575974173 7108.666144730039 -3616.298477146576 4497.737257519308C-4809.852696695734 1886.8083703085758 -5312.81307204657 1845.9065669828196 -5207.343499108061 28.172926802466463C-5101.873926169553 -1789.5607133778867 -4597.558209695504 -1772.0177716169 -3110.0445270417085 -4227.384215346402C-1622.530844387913 -6682.750659075903 118.80767665505664 -11915.679648168889 1932.7221776301512 -11757.58600309912C3746.636678605246 -11599.492358029353 4932.764640135607 -6907.817335083847 5596.7450776387395 -3468.534719011537C6260.725515141876 -29.25210293922828 6177.125844918277 1411.5609072926636 5119.828277645191 4750.970554047977 "></path><path d="M5529.255123984214 -3418.2941811758574C6184.612438922373 -23.677573104487237 6102.098478701679 1398.4235798516693 5058.532048665906 4694.464270155615C4014.965618630129 7990.504960459559 2316.5259604731336 12454.772914036825 520.136259812487 12402.701132283091C-1276.2534408481588 12350.629350529362 -2386.084999106019 7021.540437582062 -3564.138514505188 4444.519717737705C-4742.192029904358 1867.4989978933481 -5238.62045232856 1827.1283868185747 -5134.520614103538 33.001677030175415C-5030.420775878516 -1761.1250327582256 -4532.654614163871 -1743.8099214097201 -3064.45929102506 -4167.288489246632C-1596.2639678862488 -6590.767057083542 122.45976716914902 -11755.73592943506 1912.8169369627494 -11599.695448586977C3703.1741067563507 -11443.654967738896 4873.897809046057 -6812.910789247226 5529.255123984214 -3418.2941811758574C6184.612438922373 -23.677573104487237 6102.098478701679 1398.4235798516693 5058.532048665906 4694.464270155615 "></path><path d="M5461.765048259374 -3368.052178496424C6108.49924063256 -18.101578425994376 6027.07099041477 1385.2877172544213 4997.235697616306 4637.959451106999C3967.400404817845 7890.631184959577 2291.3086368997565 12296.158770726612 518.555642826751 12244.772143995957C-1254.1973512462555 12193.385517265302 -2349.4258626849337 6934.416195277838 -3511.9786739341143 4391.303642799854C-4674.5314851832945 1848.1910903218704 -5164.427954680861 1808.3516714980797 -5061.697851169327 37.83189210163255C-4958.967747657793 -1732.6878872948164 -4467.75114070255 -1715.600606358792 -3018.8741770787237 -4107.191298303111C-1569.997213454897 -6498.781990247429 126.11173561293072 -11595.790745857481 1892.911574225036 -11441.803429231084C3659.7114128371413 -11287.816112604687 4815.0308558861925 -6718.002778566855 5461.765048259374 -3368.052178496424C6108.49924063256 -18.101578425994376 6027.07099041477 1385.2877172544213 4997.235697616306 4637.959451106999 "></path><path d="M5394.274362182974 -3317.812617223244C6032.3854319911825 -12.528025153753333 5952.0428917762965 1372.1494132509251 4935.9387362151465 4581.452190652135C3919.8345806539983 7790.754968053345 2266.090702974817 12137.542186010156 516.9744154894506 12086.840714302572C-1232.1418719959147 12036.139242594996 -2312.7673366154104 6847.289511567364 -3459.8194437146017 4338.085126455751C-4606.871550813793 1828.880741344139 -5090.236067384726 1789.5725147713329 -4988.8756985866785 42.65966576683786C-4887.515329788632 -1704.2531832376553 -4402.848277592792 -1687.393732714112 -2973.2896734839505 -4047.0965487658405C-1543.7310693751078 -6406.799364817569 129.7630937051481 -11435.848003686153 1873.0056011357592 -11283.91385128144C3616.2481085663694 -11131.979698876728 4756.1632923747675 -6623.097209292734 5394.274362182974 -3317.812617223244C6032.3854319911825 -12.528025153753333 5952.0428917762965 1372.1494132509251 4935.9387362151465 4581.452190652135 "></path><path d="M5326.784530598761 -3267.5720793875626C5956.272477841992 -6.953495319008653 5877.015647630011 1359.012085809929 4874.642629306176 4524.945906759771C3872.269610982339 7690.879727709613 2240.8736235420656 11978.926577856193 515.3940426443396 11928.910261171692C-1210.0855382533873 11878.89394448719 -2276.1079560537 6760.16380441939 -3407.659359002902 4284.867586674149C-4539.210761952105 1809.5713689289114 -5016.0433255964035 1770.7943346070879 -4916.052691511843 47.48841599454681C-4816.0620574272825 -1675.817502617996 -4337.944559990847 -1659.185882506932 -2927.704315396989 -3987.0008226660702C-1517.464070803131 -6314.8157628252075 133.41530628955388 -11275.904284952323 1853.1004825386708 -11126.023296769297C3572.785658787787 -10976.14230858627 4697.29658335553 -6528.190663456115 5326.784530598761 -3267.5720793875626C5956.272477841992 -6.953495319008653 5877.015647630011 1359.012085809929 4874.642629306176 4524.945906759771 "></path><path d="M5259.294332803609 -3217.331053270628C5880.159157481865 -1.378477203013972 5801.988037272789 1345.8752466501828 4813.346156186264 4468.440111148659C3824.7042750997407 7591.004975647131 2215.656177898376 11820.311457983491 513.8133035882893 11770.98029632206C-1188.029570721796 11721.64913466063 -2239.448941702927 6673.038585552662 -3355.49964050214 4231.650535173798C-4471.550339301353 1790.2624847949319 -4941.850950019018 1752.0166427240947 -4843.230050647944 52.317654503505764C-4744.609151276872 -1647.3813337170832 -4273.041208599839 -1630.9775440185022 -2882.1193235209653 -3926.904608285048C-1491.1974384420919 -6222.831672551594 137.06715266302308 -11115.960077937245 1833.194997730643 -10968.132253975902C3529.322842798265 -10820.304430014561 4638.429508125355 -6433.2836293382425 5259.294332803609 -3217.331053270628C5880.159157481865 -1.378477203013972 5801.988037272789 1345.8752466501828 4813.346156186264 4468.440111148659 "></path><path d="M5191.803890867834 -3167.0905154349475C5804.045592981114 4.1960526317270705 5726.960182774941 1332.7379192091867 4752.049438925729 4411.933827256293C3777.1386950765173 7491.129735303402 2190.4384881140613 11661.695849829532 512.2323203916158 11613.04984319118C-1165.9738473308307 11564.403836552825 -2202.7901714927784 6585.912878404688 -3303.340166142003 4178.432995392195C-4403.890160791227 1770.9531123797042 -4867.6588185822575 1733.2384625598497 -4770.407653924672 57.1464047312129C-4673.156489267085 -1618.9456530974257 -4208.138101349456 -1602.7696938113222 -2836.5345757855666 -3866.808882185277C-1464.9310502216777 -6130.848070559233 140.71875489586546 -10956.016359203415 1813.2892687819922 -10810.241699463759C3485.859782668118 -10664.467039724103 4579.562188754555 -6338.377083501622 5191.803890867834 -3167.0905154349475C5804.045592981114 4.1960526317270705 5726.960182774941 1332.7379192091867 4752.049438925729 4411.933827256293 "></path><path d="M5124.313693072683 -3116.849489318016C5727.932272620987 9.771070747719932 5651.932572417716 1319.6010800494423 4690.752965805819 4355.42803164518C3729.5733591939206 7391.25498324092 2165.2210424703726 11503.080729956822 510.6515813355654 11455.119878341546C-1143.9178797992395 11407.159026726265 -2166.1311571420056 6498.787659537964 -3251.180447641241 4125.215943891844C-4336.229738140476 1751.6442282457265 -4793.4664430048715 1714.4607706768547 -4697.585013060773 61.97564324017003C-4601.703583116674 -1590.5094841965147 -4143.234749958448 -1574.5613553228923 -2790.9495839095434 -3806.712667804257C-1438.6644178606384 -6038.863980285622 144.37060126933375 -10796.072152188337 1793.3837839739663 -10652.350656670365C3442.396966678598 -10508.629161152396 4520.69511352438 -6243.470049383752 5124.313693072683 -3116.849489318016C5727.932272620987 9.771070747719932 5651.932572417716 1319.6010800494423 4690.752965805819 4355.42803164518 "></path><path d="M5056.8238614884685 -3066.607974919835C5651.819318471798 15.346577144962794 5576.905328271432 1306.4647291709443 4629.456858896847 4298.922724315316C3682.0083895222615 7291.380719459688 2140.0039630376205 11344.466098365363 509.0712084904544 11297.190401773161C-1121.8615460567116 11249.91470518096 -2129.4717765802948 6411.662928952486 -3199.020362929541 4071.9993806727416C-4268.568949278787 1732.3358323929951 -4719.273701216549 1695.6835670751097 -4624.762005985937 66.80537003037716C-4530.250310755326 -1562.0728270143536 -4078.3310323565024 -1546.3525285532123 -2745.364225822582 -3746.6159651419866C-1412.3974192886612 -5946.87940173076 148.02281385373954 -10636.127456892007 1773.478665376876 -10494.459125595722C3398.9345169000153 -10352.790794299437 4461.828404505142 -6148.562526984631 5056.8238614884685 -3066.607974919835C5651.819318471798 15.346577144962794 5576.905328271432 1306.4647291709443 4629.456858896847 4298.922724315316 "></path><path d="M4989.333907833943 -3016.3679253654027C5575.706242252296 20.920618698453836 5501.877962054834 1293.3269134486982 4568.160629917562 4242.4159521417005C3634.44329778029 7191.504990834706 2114.786761534555 11185.850001930154 507.4907135750291 11139.259460361027C-1099.8053343844963 11092.6689187919 -2092.812518088897 6324.536733523262 -3146.860400288154 4018.781352609889C-4200.908282487411 1713.0259716965174 -4645.081081498538 1676.9048986296148 -4551.939120981414 71.63363197683611C-4458.797160464289 -1533.6376346759444 -4013.42743682487 -1518.1451666272842 -2699.7789898059336 -3686.5207273234655C-1386.130542786998 -5854.896288019649 151.67490436783282 -10476.184226439429 1753.5734247094751 -10336.569059364829C3355.4719450511184 -10196.953892290228 4402.961573415592 -6053.65646942926 4989.333907833943 -3016.3679253654027C5575.706242252296 20.920618698453836 5501.877962054834 1293.3269134486982 4568.160629917562 4242.4159521417005 "></path><path d="M4921.84358796848 -2966.127387529722C5499.592799821858 26.495148533196698 5426.850229627298 1280.1895860077002 4506.864034727338 4185.909668249338C3586.877839827379 7091.629750490974 2089.5691938205537 11027.234393776194 505.90985244866806 10981.329007230142C-1077.7494889232175 10935.42362068409 -2056.153625808436 6237.411026375288 -3094.700803857704 3965.563812828288C-4133.247981906972 1693.716599281286 -4570.888827991465 1658.1267184653698 -4479.116602187828 76.46238220454143C-4387.344376384191 -1505.201954056285 -3948.5242075041742 -1489.9373164201024 -2654.1941200002225 -3626.4250012236953C-1359.8640324962707 -5762.912686027286 155.3266286709886 -10316.2405077056 1733.6678178311358 -10178.678504852685C3312.009006991283 -10041.11650199977 4344.094376115105 -5958.74992359264 4921.84358796848 -2966.127387529722C5499.592799821858 26.495148533196698 5426.850229627298 1280.1895860077002 4506.864034727338 4185.909668249338 "></path><path d="M4854.353634313953 -2915.8873379752904C5423.479723602355 32.06919008668956 5351.8228634107 1267.051770285454 4445.567805748053 4129.402896075722C3539.3127480854055 6991.754021865992 2064.351992317489 10868.618297340981 504.3293575332427 10823.398065818008C-1055.6932772510022 10778.177834295035 -2019.4943673170383 6150.2848309460605 -3042.540841216317 3912.3457847654354C-4065.587315115596 1674.4067385848084 -4496.696208273455 1639.348050019873 -4406.293717183305 81.29064415099856C-4315.891226093155 -1476.7667617178759 -3883.620611972541 -1461.7299544941725 -2608.608883983574 -3566.329763405174C-1333.5971559946065 -5670.929572316176 158.9787191850819 -10156.297277253021 1713.762577163735 -10020.788438621792C3268.546435142387 -9885.279599990561 4285.227545025553 -5863.843866037269 4854.353634313953 -2915.8873379752904C5423.479723602355 32.06919008668956 5351.8228634107 1267.051770285454 4445.567805748053 4129.402896075722 "></path><path d="M4786.863192378178 -2865.646800139609C5347.3661591016025 37.6437199214306 5276.7950089128535 1253.9144428444597 4384.27108848752 4072.8966121833582C3491.7471680621857 6891.87878152226 2039.1343025331744 10710.002689187026 502.7483743365692 10665.467612687124C-1033.6375538600364 10620.932536187222 -1982.8355971068904 6063.1591237980865 -2990.3813668561797 3859.1282449838327C-3997.92713660547 1655.0973661695807 -4422.504076836694 1620.569869855628 -4333.471320460031 86.11939437870751C-4244.438564083368 -1448.3310810982148 -3818.717504722158 -1433.5221042869944 -2563.024136248175 -3506.234037305404C-1307.3307677741923 -5578.9459703238135 162.6303214179252 -9996.353558519191 1693.856848215084 -9862.897884109647C3225.083375012241 -9729.442209700104 4226.360225654753 -5768.937320200649 4786.863192378178 -2865.646800139609C5347.3661591016025 37.6437199214306 5276.7950089128535 1253.9144428444597 4384.27108848752 4072.8966121833582 "></path><path d="M4719.37311665334 -2815.404797460177C5271.2529608117875 43.21971459992346 5201.767520625943 1240.7785802472117 4322.97473743792 4016.391793134746C3444.1819542498997 6792.005006022278 2013.9169789597972 10551.388545876813 501.1677573508332 10507.53862439999C-1011.5814642581331 10463.688702923166 -1946.1764606858046 5976.034881493861 -2938.221526285105 3805.91217004598C-3930.266591884406 1635.7894585980994 -4348.311579188997 1601.793154535133 -4260.64855752582 90.94960945016464C-4172.985535862645 -1419.8939356348055 -3753.8140312608375 -1405.3127892360644 -2517.439022301839 -3446.136846361883C-1281.0640133428406 -5486.960903487702 166.28228986170507 -9836.408374941613 1673.9514854773688 -9705.005864753753C3181.6206810930325 -9573.603354565896 4167.49327249489 -5674.029309520279 4719.37311665334 -2815.404797460177C5271.2529608117875 43.21971459992346 5201.767520625943 1240.7785802472117 4322.97473743792 4016.391793134746 "></path><path d="M4651.8830409285 -2765.1662127494965C5195.139762521974 48.792291309664506 5126.740032339032 1227.6392996812156 4261.678386388323 3959.88355611738C3396.6167404376156 6692.127812553546 1988.699655386421 10392.770984597857 499.58714036509537 10349.606218144105C-989.5253746562298 10306.44145169036 -1909.5173242647193 5888.907221220885 -2886.061685714031 3752.692677139379C-3862.6060471633423 1616.4781330578717 -4274.119081541298 1583.0130212458862 -4187.825794591609 95.77640655287178C-4101.53250764192 -1391.4602081401463 -3688.910557799517 -1377.1068921538845 -2471.8539083555033 -3386.0430733871126C-1254.7972589114888 -5394.979254620341 169.93425830548676 -9676.466609332783 1654.0461227396554 -9547.11726336661C3138.157987173824 -9417.767917400437 4108.626319335028 -5579.1247168086575 4651.8830409285 -2765.1662127494965C5195.139762521974 48.792291309664506 5126.740032339032 1227.6392996812156 4261.678386388323 3959.88355611738 "></path><path d="M4584.39284313335 -2714.924698351314C5119.026442161847 54.36779770690737 5051.712421981809 1214.5029488027176 4200.381913268413 3903.378248787516C3349.051404555017 6592.253548772313 1963.4822097427314 10234.156353006398 498.00640130904594 10191.67674157572C-967.4694071246395 10149.19713014505 -1872.858309913946 5801.782490635409 -2833.9019672132686 3699.4761139202765C-3794.945624512591 1597.1697372051403 -4199.926705963913 1564.2358176441412 -4115.003153727712 100.60613334307891C-4030.0796014915095 -1363.0235509579834 -3624.0072064085093 -1348.8980653842045 -2426.2689164794792 -3325.9463707248415C-1228.5306265504496 -5302.994676065479 173.58610467895505 -9516.521914036455 1634.1406379316286 -9389.225732291967C3094.695171184303 -9261.929550547478 4049.7592441048528 -5484.217194409537 4584.39284313335 -2714.924698351314C5119.026442161847 54.36779770690737 5051.712421981809 1214.5029488027176 4200.381913268413 3903.378248787516 "></path><path d="M4516.902645338199 -2664.6817191093833C5042.913121801721 59.94476894790205 4976.684811624586 1201.3680627679714 4139.085440148503 3846.874406301402C3301.4860686724205 6492.380749834831 1938.2647640990417 10075.543186258688 496.4256622529965 10033.74872985109C-945.4134395930482 9991.95427344349 -1836.199295563173 5714.659224893685 -2781.742248712507 3646.261015544924C-3727.2852018618396 1577.8628061961626 -4125.734330386528 1545.460078886148 -4042.180512863813 105.43732497703604C-3958.6266953410986 -1334.5854289320741 -3559.1038550175012 -1320.6877737707764 -2380.6839246034556 -3265.8482032188213C-1202.2639941894104 -5211.008632666868 177.23795105242243 -9356.575753896377 1614.2351531236018 -9231.332736373573C3051.232355194782 -9106.08971885077 3990.8921688746777 -5389.308207166667 4516.902645338199 -2664.6817191093833C5042.913121801721 59.94476894790205 4976.684811624586 1201.3680627679714 4139.085440148503 3846.874406301402 "></path><path d="M4449.412447543047 -2614.4421578362017C4966.799801441593 65.51832222014309 4901.657201267362 1188.2297587644753 4077.788967028593 3790.367145846538C3253.920732789823 6392.504532928599 1913.047318455353 9916.926601542229 494.8449231969471 9875.817300157709C-923.3574720614579 9834.707998773181 -1799.5402812123998 5627.532541183207 -2729.5825302117446 3593.042499200821C-3659.624779211089 1558.552457218435 -4051.541954809142 1526.680922159403 -3969.357871999915 110.265098642245C-3887.1737891906873 -1306.150724874914 -3494.2005036264936 -1292.4809001260955 -2335.098932727432 -3205.75345368155C-1175.9973618283711 -5119.026007237006 180.88979742589072 -9196.633011725047 1594.329668315575 -9073.44315842393C3007.769539205259 -8950.253305122811 3932.025093644501 -5294.402637892546 4449.412447543047 -2614.4421578362017C4966.799801441593 65.51832222014309 4901.657201267362 1188.2297587644753 4077.788967028593 3790.367145846538 "></path><path d="M4381.922127677584 -2564.20259656302C4890.686359011153 71.09187549238595 4826.629468839827 1175.091454760979 4016.4923718383707 3733.859885391672C3206.355274836914 6292.628316022367 1887.8297507413508 9758.31001682577 493.26406207058517 9717.885870464324C-901.30162660018 9677.461724102875 -1762.8813889319395 5540.405857472733 -2677.422933781295 3539.8239828567184C-3591.96447863065 1539.2421082407036 -3977.349701302069 1507.9017654326562 -3896.535353206329 115.0928723074503C-3815.7210051105885 -1277.7160208177547 -3429.297274305798 -1264.2740264814156 -2289.5140629217212 -3145.65870414428C-1149.730851537644 -5027.043381807145 184.5415217290465 -9036.69026955372 1574.4240614372366 -8915.553580474287C2964.3066011454257 -8794.416891394854 3873.1578963440134 -5199.497068618426 4381.922127677584 -2564.20259656302C4890.686359011153 71.09187549238595 4826.629468839827 1175.091454760979 4016.4923718383707 3733.859885391672 "></path><path d="M4314.431929882434 -2513.9605938835884C4814.573038651028 76.66787017087881 4751.601858482605 1161.955592163733 3955.19589871846 3677.3550663430597C3158.7899389543154 6192.754540522385 1862.6123050976603 9599.69587351556 491.68332301453574 9559.95688217719C-879.2456590685888 9520.217890838816 -1726.2223745811666 5453.281615168507 -2625.2632152805327 3486.6079079188657C-3524.3040559798987 1519.934200669226 -3903.1573257246837 1489.1250501121613 -3823.7127123424307 119.92308737890744C-3744.268098960177 -1249.2788753543446 -3364.39392291479 -1236.0647114304857 -2243.929071045697 -3085.5615132007597C-1123.4642191766047 -4935.058314971033 188.1933681025148 -8876.74508597614 1554.5185766292107 -8757.661561118392C2920.8437851559047 -8638.578036260646 3814.2908211138383 -5104.589057938056 4314.431929882434 -2513.9605938835884C4814.573038651028 76.66787017087881 4751.601858482605 1161.955592163733 3955.19589871846 3677.3550663430597 "></path><path d="M4246.941610016969 -2463.7200560479077C4738.459596220589 82.24240000561986 4676.574126055069 1148.8182647227368 3893.8993035282374 3620.8487824506956C3111.2244810014054 6092.879300178653 1837.3947373836581 9441.080265361601 490.1024618881738 9402.026429046306C-857.189813607311 9362.972592731006 -1689.5634823007058 5366.155908020532 -2573.103618850083 3433.390368137263C-3456.64375539946 1500.6248282539946 -3828.965072217611 1470.3468699479163 -3750.8901935488448 124.75183760661639C-3672.8153148800784 -1220.8431947346844 -3299.4906935940944 -1207.8568612233066 -2198.3442012399864 -3025.4657871009886C-1097.197708885878 -4843.074712978672 191.84509240567058 -8716.801367242311 1534.6129697508704 -8599.771006606248C2877.380847096071 -8482.740645970187 3755.4236238133517 -5009.682512101434 4246.941610016969 -2463.7200560479077C4738.459596220589 82.24240000561986 4676.574126055069 1148.8182647227368 3893.8993035282374 3620.8487824506956 "></path><path d="M4179.451168081194 -2413.4790299309752C4662.346031719837 87.81741812161272 4601.546271557221 1135.6814255629888 3832.6025862677016 3564.3429868395797C3063.6589009781837 5993.004548116171 1812.1770475993444 9282.465145488892 488.5214786914994 9244.096464196671C-835.1340902163452 9205.72778290445 -1652.904712090558 5279.0306891538075 -2520.9441444899458 3380.173316636912C-3388.9835768893336 1481.3159441200169 -3754.7729407808506 1451.5691780649213 -3678.0677968255713 129.58107611557352C-3601.3626528702925 -1192.4070258337742 -3234.5875863437113 -1179.6485227348767 -2152.759453504588 -2965.3695727199693C-1070.9313206654638 -4751.09062270506 195.49669463851387 -8556.857160227231 1514.7072408022195 -8441.879963812855C2833.917786965925 -8326.902767398478 3696.5563044425508 -4914.775477983564 4179.451168081194 -2413.4790299309752C4662.346031719837 87.81741812161272 4601.546271557221 1135.6814255629888 3832.6025862677016 3564.3429868395797 "></path><path d="M4111.9609702860425 -2363.2384920952945C4586.232711359709 93.39194795635376 4526.518661199996 1122.5440981219926 3771.3061131477925 3507.8367029472174C3016.093565095586 5893.129307772439 1786.9596019556548 9123.849537334932 486.94073963545 9086.166011065787C-813.0781226847544 9048.482484796641 -1616.2456977397842 5191.904982005832 -2468.7844259891835 3326.9557768553095C-3321.3231542385824 1462.0065717047892 -3680.580565203465 1432.7909979006745 -3605.245155961673 134.40982634328066C-3529.9097467198812 -1163.971345214115 -3169.6842349527033 -1151.4406725276976 -2107.174461628564 -2905.273846620198C-1044.6646883044245 -4659.107020712699 199.14854101198216 -8396.913441493403 1494.8017559941927 -8283.989409300711C2790.454970976404 -8171.065377108021 3637.6892292123757 -4819.868932146943 4111.9609702860425 -2363.2384920952945C4586.232711359709 93.39194795635376 4526.518661199996 1122.5440981219926 3771.3061131477925 3507.8367029472174 "></path><path d="M4044.4707724908912 -2312.997954259613C4510.119390999582 98.96647779109844 4451.491050842775 1109.4067706809947 3710.0096400278826 3451.3304190548515C2968.5282292129896 5793.254067428707 1761.7421563119651 8965.233929180973 485.36000057940146 8928.235557934902C-791.0221551531636 8891.237186688832 -1579.5866833890113 5104.779274857856 -2416.6247074884213 3273.738237073707C-3253.6627315878313 1442.6971992895578 -3606.3881896260796 1414.0128177364295 -3532.422515097775 139.2385765709878C-3458.45684056947 -1135.5356645944548 -3104.7808835616956 -1123.2328223205168 -2061.5894697525405 -2845.178120520428C-1018.3980559433853 -4567.123418720337 202.80038738545045 -8236.969722759573 1474.896271186166 -8126.098854788568C2746.992154986883 -8015.227986817562 3578.8221539822 -4724.962386310323 4044.4707724908912 -2312.997954259613C4510.119390999582 98.96647779109844 4451.491050842775 1109.4067706809947 3710.0096400278826 3451.3304190548515 "></path><path d="M3976.9806967660525 -2262.757904705182C4434.006192709769 104.54051934458948 4376.463562555866 1096.2689549587503 3648.7132889782843 3394.8236468812374C2920.9630154007036 5693.378338803726 1736.5248327385889 8806.617832745764 483.77938359366453 8770.304616522768C-768.9660655512607 8733.991400299772 -1542.927546967926 5017.65307942863 -2364.4648669173466 3220.520209010854C-3186.0021868667677 1423.3873385930801 -3532.1956919783815 1395.2341492909345 -3459.599752163564 144.06683851744492C-3387.0038123487466 -1107.1004722560447 -3039.877410100375 -1095.0254603945878 -2016.0043558062043 -2785.082882701907C-992.1313015120336 -4475.140305009226 206.45235582923124 -8077.026492306995 1454.9909084484525 -7968.208788557674C2703.529461067673 -7859.391084808353 3519.9552008223372 -4630.056328754953 3976.9806967660525 -2262.757904705182C4434.006192709769 104.54051934458948 4376.463562555866 1096.2689549587503 3648.7132889782843 3394.8236468812374 "></path><path d="M3909.4903769005896 -2212.5168785882497C4357.8927502793285 110.11553746058053 4301.435830128329 1083.1321157990042 3587.416693788062 3338.317851270125C2873.3975574477945 5593.503586741244 1711.3072650245867 8648.002712873054 482.1985224673026 8612.374651673137C-746.910220089982 8576.746590473216 -1506.2686546874656 4930.527860561906 -2312.305270486897 3167.3031575105015C-3118.341886286329 1404.0784544590988 -3458.003438471309 1376.4564574079377 -3386.777233369978 148.89607702640205C-3315.5510282686478 -1078.6643033551354 -2974.97418077968 -1066.8171219061578 -1970.4194860004934 -2724.9866683208866C-965.8647912213069 -4383.156214735614 210.10408013238657 -7917.082285291916 1435.0853015701132 -7810.3177457642805C2660.0665230078394 -7703.553206236646 3461.088003521849 -4535.149294637082 3909.4903769005896 -2212.5168785882497C4357.8927502793285 110.11553746058053 4301.435830128329 1083.1321157990042 3587.416693788062 3338.317851270125 "></path><path d="M3842.000301175751 -2162.276340752569C4281.779551989514 115.69006729532339 4226.408341841418 1069.9947883580062 3526.1203427384635 3281.8115673777593C2825.8323436355095 5493.628346397512 1686.0899414512096 8489.387104719099 480.6179054815657 8454.444198542253C-724.8541304880791 8419.501292365407 -1469.6095182663798 4843.402153413928 -2260.145429915822 3114.0856177289006C-3050.681341565265 1384.769082043871 -3383.810940823611 1357.6782772436945 -3313.9544704357672 153.7248272541092C-3244.098000047924 -1050.2286227354743 -2910.0707073183594 -1038.6092716989788 -1924.8343720541573 -2664.8909422211154C-939.5980367899551 -4291.172612743252 213.7560485761678 -7757.138566558087 1415.1799388323998 -7652.427191252137C2616.603829088631 -7547.715815946187 3402.221050361987 -4440.242748800461 3842.000301175751 -2162.276340752569C4281.779551989514 115.69006729532339 4226.408341841418 1069.9947883580062 3526.1203427384635 3281.8115673777593 "></path><path d="M3774.5101033805995 -2112.0362911981374C4205.666231629388 121.26410884881807 4151.380731484195 1056.8569726357618 3464.8238696185545 3225.304795204147C2778.267007752913 5393.75261777253 1660.87249580752 8330.77100828389 479.03716642551626 8296.513257130118C-702.7981629564879 8262.25550597635 -1432.9505039156065 4756.275957984706 -2207.98571141506 3060.8675896660498C-2983.020918914514 1365.4592213473916 -3309.6185652462254 1338.8996087981996 -3241.1318295718693 158.55308920056814C-3172.6450938975127 -1021.7934303970642 -2845.1673559273513 -1010.4019097730488 -1879.2493801781336 -2604.7957044025943C-913.3314044289159 -4199.18949903214 217.4078949496361 -7597.195336105508 1395.274454024373 -7494.537125021244C2573.14101309911 -7391.878913936978 3343.3539751318112 -4345.336691245091 3774.5101033805995 -2112.0362911981374C4205.666231629388 121.26410884881807 4151.380731484195 1056.8569726357618 3464.8238696185545 3225.304795204147 "></path><path d="M3707.0197224799804 -2061.795265081205C4129.552728163793 126.83912696481002 4076.352938021504 1043.7201334760139 3403.527213393175 3168.798999593031C2730.7014887648465 5293.877865710048 1635.6548670583625 8172.155888411182 477.45624426399763 8138.5832922804875C-680.7423785303663 8105.010696149793 -1396.2916726703024 4669.15073911798 -2155.826176019767 3007.650538165697C-2915.3606793692315 1346.1503372134139 -3235.4263727743087 1320.1219169152046 -3168.3093718134396 163.38232770952527C-3101.19237085257 -993.357261496154 -2780.264187641812 -982.193571284618 -1833.6645714075787 -2544.699490021574C-887.0649551733454 -4107.205408758529 221.05955821763519 -7437.2511290904295 1375.3687861108774 -7336.64608222785C2529.67801400412 -7236.041035365271 3284.4867167961675 -4250.429657127221 3707.0197224799804 -2061.795265081205C4129.552728163793 126.83912696481002 4076.352938021504 1043.7201334760139 3403.527213393175 3168.798999593031 "></path><path d="M3639.529524684829 -2011.5537506830242C4053.439407803665 132.41463336205197 4001.325327664281 1030.5837825975177 3342.230740273265 3112.293692263169C2683.136152882249 5194.003601928816 1610.4374214146728 8013.541256819723 475.8755052079482 7980.653815712103C-658.686410998776 7947.766374604484 -1359.6326583195291 4582.026008532504 -2103.666457519005 2954.4339749465944C-2847.7002567184804 1326.8419413606844 -3161.233997196923 1301.3447133134596 -3095.486730949541 168.2120544997324C-3029.7394647021592 -964.9206043139939 -2715.360836250804 -953.9847445149389 -1788.079579531555 -2484.602787359303C-860.7983228123062 -4015.2208302036674 224.71140459110347 -7277.3064337941005 1355.4633013028506 -7178.754551153206C2486.215198014599 -7080.202668512312 3225.6196415659915 -4155.522134728099 3639.529524684829 -2011.5537506830242C4053.439407803665 132.41463336205197 4001.325327664281 1030.5837825975177 3342.230740273265 3112.293692263169 "></path><path d="M3572.0392658545215 -1961.3137011285926C3977.326026408383 137.98867491554483 3926.2976562719014 1017.4459668752716 3280.9342061181987 3055.7869200895548C2635.570755964495 5094.127873303834 1585.219914735827 7854.925160384513 474.29470511674253 7822.722874299969C-636.630504502341 7790.520588215426 -1322.9737050039125 4494.899813103279 -2051.506800053399 2901.2159468837417C-2780.0398951028856 1307.5320806642048 -3087.041682654694 1282.5660448679646 -3022.664151120799 173.04031644618954C-2958.286619586904 -936.4854119755837 -2650.457545894952 -925.777382589009 -1742.4946486906877 -2424.5075495407827C-834.5317514864232 -3923.237716492556 228.3631899294155 -7117.3632033415215 1335.5577554596684 -7020.864484922313C2442.752320989922 -6924.365766503103 3166.7525053006602 -4060.616077172729 3572.0392658545215 -1961.3137011285926C3977.326026408383 137.98867491554483 3926.2976562719014 1017.4459668752716 3280.9342061181987 3055.7869200895548 "></path><path d="M3504.549068059371 -1911.07316329291C3901.212706048256 143.5632047502868 3851.270045914679 1004.3086394342754 3219.637732998288 2999.280636197189C2588.0054200818986 4994.252632960102 1560.0024690921373 7696.309552230554 472.7139660606931 7664.792421169084C-614.5745369707506 7633.2752901076165 -1286.3146906531395 4407.774105955305 -1999.3470815526366 2847.998407102141C-2712.379472452134 1288.2227082489771 -3012.8493070773084 1263.7878647037178 -2949.8415102569006 177.86906667389667C-2886.833713436493 -908.0497313559245 -2585.5541945039445 -897.56953238183 -1696.9096568146642 -2364.4118234410125C-808.265119125384 -3831.254114500194 232.0150363028838 -6957.4194846076925 1315.6522706516416 -6862.973930410169C2399.289505000399 -6768.5283762126455 3107.885430070486 -3965.7095313361087 3504.549068059371 -1911.07316329291C3901.212706048256 143.5632047502868 3851.270045914679 1004.3086394342754 3219.637732998288 2999.280636197189 "></path><path d="M3437.0590533696886 -1860.8326254572294C3825.0995687935983 149.13773458502874 3776.2426186629236 991.1713119932783 3158.3414429838467 2942.7743523048266C2540.44026730477 4894.37739261637 1534.7852065539164 7537.693944076595 471.13341011011244 7506.861968038202C-592.5183863336911 7476.029991999809 -1249.6554931968976 4320.648398807329 -1947.1871799464059 2794.780867320538C-2644.718866695914 1268.9133358337458 -2938.6567483944546 1245.0096845394728 -2877.018686287534 182.6978169016047C-2815.3806241806133 -879.6140507362634 -2520.6506600074676 -869.36168217465 -1651.3244818331718 -2304.3160973412414C-781.9983036588756 -3739.270512507833 235.66706578182084 -6797.475765873864 1295.7469689490845 -6705.083375898025C2355.8268721163467 -6612.690985922187 3049.018537945779 -3870.802985499488 3437.0590533696886 -1860.8326254572294C3825.0995687935983 149.13773458502874 3776.2426186629236 991.1713119932783 3158.3414429838467 2942.7743523048266 "></path><path d="M3369.568794539381 -1810.5906227777978C3748.9861873983145 154.7137292635207 3701.214947270545 978.0354493960313 3097.0449088287805 2886.2695332562107C2492.874870387015 4794.50361711639 1509.5676998750705 7379.079800766385 469.55261001890676 7348.932979751067C-570.4624798372565 7318.786158735751 -1212.9965398812808 4233.524156503103 -1895.0275224808 2741.5647923826855C-2577.0585050803193 1249.605428262268 -2864.4644338522253 1226.2329692189778 -2804.1961064587917 187.52803197306184C-2743.927779065358 -851.1769052728541 -2455.747369651616 -841.152367123721 -1605.7395509923044 -2244.2189063977203C-755.731732332993 -3647.2854456717214 239.31885112013242 -6637.530582296285 1275.8414231059014 -6547.191356542132C2312.3639950916695 -6456.852130787978 2990.1514016804476 -3775.8949748191176 3369.568794539381 -1810.5906227777978C3748.9861873983145 154.7137292635207 3701.214947270545 978.0354493960313 3097.0449088287805 2886.2695332562107 "></path><path d="M3302.07859674423 -1760.3505732233662C3672.872867038188 160.28777081701446 3626.187336913322 964.897633673786 3035.7484357088706 2829.7627610825966C2445.3095345044185 4694.627888491408 1484.3502542313818 7220.463704331176 467.9718709628578 7191.002038338935C-548.4065123056662 7161.540372346692 -1176.3375255305077 4146.397961073879 -1842.867803980038 2688.346764319833C-2509.3980824295677 1230.2955675657886 -2790.2720582748398 1207.4543007734828 -2731.3734655948933 192.35629391951989C-2672.474872914947 -822.7417129344449 -2390.844018260608 -812.9450051977901 -1560.1545591162808 -2184.1236685792C-729.4650999719534 -3555.30233196061 242.9706974936007 -6477.587351843706 1255.9359382978746 -6389.301290311238C2268.9011791021485 -6301.0152287787705 2931.2843264502717 -3680.9889172637468 3302.07859674423 -1760.3505732233662C3672.872867038188 160.28777081701446 3626.187336913322 964.897633673786 3035.7484357088706 2829.7627610825966 "></path><path d="M3234.588276878767 -1710.1095471064345C3596.7594246077488 165.8627889330064 3551.159604485787 951.7607945140389 2974.451840518648 2773.2569654714807C2397.7440765515084 4594.753136428926 1459.1326865173796 7061.848584458467 466.39100983649587 7033.0720734893C-526.3506668443879 7004.295562520134 -1139.678633250047 4059.272742207151 -1790.7082075495882 2635.12971281948C-2441.7377818491295 1210.986683431809 -2716.0798047677667 1188.676608890487 -2658.5509468013074 197.1855324284761C-2601.022088834848 -794.3055440335338 -2325.9407889399126 -784.7366667093602 -1514.5696893105696 -2124.027454198179C-703.1985896812266 -3463.318241686998 246.6224217967565 -6317.643144828627 1236.0303314195353 -6231.410247517844C2225.438241042315 -6145.177350207062 2872.417129149784 -3586.0818831458764 3234.588276878767 -1710.1095471064345C3596.7594246077488 165.8627889330064 3551.159604485787 951.7607945140389 2974.451840518648 2773.2569654714807 "></path><path d="M3167.098201153928 -1659.8690092707538C3520.6462263179346 171.43731876774837 3476.1321161988762 938.6234670730419 2913.15548946905 2716.7506815791185C2350.1788627392243 4494.877896085194 1433.9153629440025 6903.232976304507 464.81039285075894 6875.141620358416C-504.2945772424846 6847.050264412324 -1103.0194968289616 3972.147035059177 -1738.5483669785135 2581.9121730378793C-2374.0772371280655 1191.6773110165805 -2641.8873071200687 1169.898428726242 -2585.728183867097 202.01428265618415C-2529.5690606141243 -765.8698634138746 -2261.037315478592 -756.5288165021811 -1468.9845753642335 -2063.9317280984087C-676.9318352498749 -3371.3346396946367 250.2743902405373 -6157.699426094798 1216.124968681821 -6073.519693005701C2181.9755471231065 -5989.339959916604 2813.5501759899207 -3491.1753373092556 3167.098201153928 -1659.8690092707538C3520.6462263179346 171.43731876774837 3476.1321161988762 938.6234670730419 2913.15548946905 2716.7506815791185 "></path><path d="M3099.608003358776 -1609.6279831538222C3444.532905957807 177.01233688374123 3401.104505841653 925.4866279132957 2851.85901634914 2660.2448859680044C2302.613526856627 4395.003144022712 1408.6979173003128 6744.6178564318 463.2296537947095 6717.211655508783C-482.2386097108938 6689.805454585767 -1066.3604824781885 3885.0218161924513 -1686.3886484777513 2528.6951215375266C-2306.4168144773143 1172.368426882601 -2567.6949315426837 1151.120736843246 -2512.9055430031985 206.84352116514128C-2458.1161544637134 -737.4336945129644 -2196.133964087584 -728.3204780137512 -1423.39958348821 -2003.8355137173885C-650.6652028888357 -3279.350549421025 253.92623661400557 -5997.755219079719 1196.2194838737955 -5915.628650212308C2138.5127311335846 -5833.5020813448955 2754.6831007597466 -3396.2683031913853 3099.608003358776 -1609.6279831538222C3444.532905957807 177.01233688374123 3401.104505841653 925.4866279132957 2851.85901634914 2660.2448859680044 "></path><path d="M3032.117683493313 -1559.3874453181406C3368.419463527368 182.58686671848318 3326.076773414118 912.3493004722995 2790.5624211589175 2603.7386020756403C2255.0480689037167 4295.12790367898 1383.4803495863107 6586.00224827784 461.6487926683476 6559.281202377899C-460.1827642496155 6532.560156477959 -1029.701590197728 3797.8961090444755 -1634.2290520473018 2475.477581755924C-2238.7565138968757 1153.0590544673723 -2493.5026780356106 1132.342556679002 -2440.0830242096126 211.67227139284842C-2386.6633703836146 -708.9980138933042 -2131.2307347668884 -700.1126278065722 -1377.814713682499 -1943.7397876176183C-624.3986925981089 -3187.366947428664 257.57796091716136 -5837.81150034589 1176.3138769954562 -5757.738095700163C2095.049793073751 -5677.664691054437 2695.815903459258 -3301.3617573547644 3032.117683493313 -1559.3874453181406C3368.419463527368 182.58686671848318 3326.076773414118 912.3493004722995 2790.5624211589175 2603.7386020756403 "></path><path d="M2964.6277298387868 -1509.14641920121C3292.3063873078663 188.16188483447513 3251.049407197519 899.2124613125534 2729.2661921796325 2547.232806464526C2207.482977161744 4195.253151616498 1358.263148083246 6427.387128405131 460.0682977529232 6401.351237528264C-438.1265525773997 6375.3153466513995 -993.0423317063298 3710.7708901777496 -1582.0690894059144 2422.260530255571C-2171.095847105499 1133.7501703333928 -2419.3100583176 1113.564864796006 -2367.260139205089 216.50150990180646C-2315.2102200925783 -680.5618449923941 -2066.327139235256 -671.9042893181413 -1332.2294776658503 -1883.6435732365971C-598.1318160964447 -3095.382857155052 261.2300514312542 -5677.867293330812 1156.4086363280544 -5599.84705290677C2051.587221224855 -5521.826812482729 2636.949072369708 -3206.454723236894 2964.6277298387868 -1509.14641920121C3292.3063873078663 188.16188483447513 3251.049407197519 899.2124613125534 2729.2661921796325 2547.232806464526 "></path><path d="M2897.137471008479 -1458.9068579280283C3216.1930059125834 193.73543810671708 3176.0217358051405 886.0741573090563 2667.9696580245654 2490.7255460096603C2159.9175802439913 4095.376934710266 1333.0456414044006 6268.770543688672 458.4874976617175 6243.41980783488C-416.07064608096516 6218.069071981092 -956.383378390713 3623.6442064672756 -1529.9094319403087 2369.0420139114694C-2103.4354854899043 1114.4398213556633 -2345.117743775371 1094.7857080692602 -2294.437559376347 221.32928356701268C-2243.7573749773237 -652.1271409352339 -2001.423848879404 -643.6974156734623 -1286.644546824983 -1823.5488236993265C-571.8652447705617 -3003.4002317251907 264.88183676956623 -5517.924551159483 1136.5030904848718 -5441.957474957127C2008.124344200177 -5365.9903987547705 2578.081936104376 -3111.5491539627733 2897.137471008479 -1458.9068579280283C3216.1930059125834 193.73543810671708 3176.0217358051405 886.0741573090563 2667.9696580245654 2490.7255460096603 "></path><path d="M2829.647273213328 -1408.665343529845C3140.079685552456 199.31094450396176 3100.994125447918 872.9378064305602 2606.6731849046555 2434.220238679798C2112.352244361394 3995.502670929034 1307.8281957607114 6110.155912097214 456.9067586056681 6085.490331266499C-394.01467854937437 6060.824750435784 -919.7243640399402 3536.5194758817997 -1477.7497134395467 2315.8254506923677C-2035.7750628391532 1095.1314255029347 -2270.9253681979853 1076.008504467516 -2221.6149185124486 226.15901035722163C-2172.3044688269124 -623.6904837530728 -1936.520497488396 -615.4885889037823 -1241.0595549489592 -1763.4521210370553C-545.5986124095225 -2911.4156531703284 268.533683143035 -5357.979855863154 1116.597605676845 -5284.065943882482C1964.661528210656 -5210.152031901812 2519.214860874201 -3016.6416315636525 2829.647273213328 -1408.665343529845C3140.079685552456 199.31094450396176 3100.994125447918 872.9378064305602 2606.6731849046555 2434.220238679798 "></path><path d="M2762.1570143830213 -1358.4245615535392C3063.966304157173 204.88571847932872 3025.9664540555377 859.8007231301899 2545.3766507495893 2377.714198928059C2064.78684744364 3895.627674725929 1282.610689081866 5951.54054808388 455.3259585144624 5927.560122276242C-371.9587720529398 5903.5796964686015 -883.0654107243231 3449.3940128744507 -1425.5900559739407 2262.608155051391C-1968.1147012235583 1075.822297228332 -2196.733053655756 1057.2305684438961 -2148.792338683707 230.98800472555376C-2100.8516237116573 -595.2545589927886 -1871.6172071325443 -587.2804945559774 -1195.474624108092 -1703.3561507966597C-519.3320410836395 -2819.4318070373424 272.18546848134656 -5198.0358929887 1096.6920598336628 -5126.175145229714C1921.1986511859786 -5054.314397470729 2460.3477246088696 -2921.734841586407 2762.1570143830213 -1358.4245615535392C3063.966304157173 204.88571847932872 3025.9664540555377 859.8007231301899 2545.3766507495893 2377.714198928059 "></path><path d="M2694.6668776230263 -1308.1840237178576C2987.8530448322026 210.46024831407067 2950.9389047334716 846.6633956891928 2484.0802386648356 2321.207915035694C2017.2215725961996 3795.752434382197 1257.3933044733321 5792.924939929921 453.7452804935692 5769.629669145357C-349.9027434861937 5746.334398360794 -846.4063353383938 3362.268305726475 -1373.4302764380222 2209.390615269788C-1900.4542175376507 1056.5129248131025 -2122.5406170432143 1038.4523882796511 -2075.9696367846523 235.8167549532618C-2029.39865652609 -566.8188783731284 -1806.7137947063802 -559.0726443487983 -1149.8895711969121 -1643.260424696889C-493.0653476874443 -2727.4482050449806 275.8373758899711 -5038.092174254871 1076.7866360607923 -4968.284590717571C1877.7358962316139 -4898.47700718027 2401.480710413851 -2826.8282957497863 2694.6668776230263 -1308.1840237178576C2987.8530448322026 210.46024831407067 2950.9389047334716 846.6633956891928 2484.0802386648356 2321.207915035694 "></path><path d="M2627.1766187927187 -1257.9432417415514C2911.7396634369197 216.03502228943853 2875.911233341092 833.5263123888208 2422.7837045097685 2264.701875283955C1969.656175678445 3695.87743817909 1232.1757977944867 5634.309575916584 452.16448040236355 5611.699460155098C-327.84683698975914 5589.089344393611 -809.747382022777 3275.142842719124 -1321.2706189724163 2156.1733196288114C-1832.7938559220559 1037.203796538498 -2048.3483025009855 1019.6744522560302 -2003.14705695591 240.64574932159303C-1957.945811410835 -538.3829536128442 -1741.8105043505284 -530.8645500009925 -1104.3046403560447 -1583.1644544564933C-466.79877636156107 -2635.464358911994 279.48916122828314 -4878.148211380417 1056.8810902176097 -4810.393792064802C1834.2730192069357 -4742.639372749187 2342.6135741485186 -2731.921505772541 2627.1766187927187 -1257.9432417415514C2911.7396634369197 216.03502228943853 2875.911233341092 833.5263123888208 2422.7837045097685 2264.701875283955 "></path><path d="M2559.6864820327246 -1207.7024597652448C2835.6264041119484 221.60979626480548 2800.883684019026 820.3892290884496 2361.487292425015 2208.1958355322167C1922.0909008310045 3596.002441975983 1206.9584131859533 5475.69421190325 450.5838023814713 5453.769251164838C-305.79080842301187 5431.844290426427 -773.0883066368476 3188.017379711774 -1269.1108394364978 2102.9560239878338C-1765.1333722361483 1017.8946682638934 -1974.1558658884437 1000.8965162324102 -1930.3243550568557 245.47474368992607C-1886.4928442252676 -509.947028852559 -1676.907091924364 -502.65645565318846 -1058.7195874448648 -1523.0684842160977C-440.5320829653656 -2543.4805127790073 283.1410686369072 -4718.204248505963 1036.975666444739 -4652.502993412033C1790.810264252571 -4586.801738318104 2283.7465599535 -2637.0147157952956 2559.6864820327246 -1207.7024597652448C2835.6264041119484 221.60979626480548 2800.883684019026 820.3892290884496 2361.487292425015 2208.1958355322167 "></path><path d="M2492.196162167261 -1157.4614336483132C2759.5129616815093 227.18481438079743 2725.8559515914903 807.2523899287025 2300.1906972347924 2151.6900399211017C1874.5254428780945 3496.127689913501 1181.7408454719516 5317.079092030543 449.0029412551089 5295.839286315204C-283.7349629617338 5274.599480599869 -736.429414356387 3100.8921608450482 -1216.9512430060483 2049.738972487482C-1697.4730716557096 998.5857841299139 -1899.9636123813707 982.1188243494144 -1857.5018362632698 250.3039821988832C-1815.0400601451688 -481.51085995164794 -1612.0038626036687 -474.4481171647585 -1013.1347176391537 -1462.972269835077C-414.26557267463886 -2451.496422505396 286.79279294006346 -4558.260041490884 1017.0700595664002 -4494.61195061864C1747.3473261927375 -4430.963859746395 2224.8793626530123 -2542.107681677425 2492.196162167261 -1157.4614336483132C2759.5129616815093 227.18481438079743 2725.8559515914903 807.2523899287025 2300.1906972347924 2151.6900399211017 "></path><path d="M2424.7056591963283 -1107.221872375132C2683.3993361456014 232.7583676530403 2650.828036058486 794.1140859252064 2238.8939189391012 2095.1827794662377C1826.9598018197162 3396.251473007268 1156.5230946524812 5158.462507314083 447.42189702327823 5137.907856621823C-261.67930060592425 5117.353205929559 -699.7707051813952 3013.7654771345724 -1164.7918296810676 1996.5204561433793C-1629.8129541807398 979.2754351521862 -1825.7715419797664 963.3396676226703 -1784.6795005751528 255.13175586409125C-1743.587459170539 -453.0761558944887 -1547.1008163884421 -446.24124352007857 -967.5500309389113 -1402.8775202978063C-387.9992454893809 -2359.513797075534 290.44433413775005 -4398.317299319555 997.1642695825922 -4336.722372668996C1703.8842050274343 -4275.127446018437 2166.011982247055 -2447.2021124033045 2424.7056591963283 -1107.221872375132C2683.3993361456014 232.7583676530403 2650.828036058486 794.1140859252064 2238.8939189391012 2095.1827794662377 "></path><path d="M2357.215461401178 -1056.9801138363255C2607.286015785475 238.33411819090816 2575.8004257012635 780.9779791873352 2177.5974458191904 2038.6777162769986C1779.3944659371186 3296.377453366661 1131.305649008791 4999.848119863249 445.8411579672288 4979.978624194064C-239.62333307433346 4960.109128524877 -663.1116908306224 2926.6409906897225 -1112.6321111803054 1943.3041370649016C-1562.1525315299884 959.9672834400817 -1751.579166402381 944.5627081615494 -1711.8568597112544 259.96172679492247C-1672.1345530201277 -424.63925457170353 -1482.197464997434 -418.0321726097736 -921.9650390628876 -1342.780573494911C-361.7326131283414 -2267.5289743800477 294.09618051121834 -4238.372359882601 977.2587847745663 -4178.830597453727C1660.4213890379133 -4119.288835024854 2107.14490701688 -2352.294345863559 2357.215461401178 -1056.9801138363255C2607.286015785475 238.33411819090816 2575.8004257012635 780.9779791873352 2177.5974458191904 2038.6777162769986 "></path><path d="M2289.725629816964 -1006.7393318600189C2531.1730616362856 243.9088921662751 2500.773181554978 767.8408958869632 2116.301338910218 1982.1716765252586C1731.829496265459 3196.502457163554 1106.0885695760394 4841.232755849915 444.2607851221169 4822.048415203804C-217.5669993318054 4802.864074557694 -626.4523102689118 2839.5155276823725 -1060.4720264686057 1890.0868414239249C-1494.4917426682996 940.6581551654772 -1677.3864246140581 925.7847721379294 -1639.0338526364185 264.7907211632555C-1600.681280658779 -396.20332981141837 -1417.2937473954885 -389.8240782619696 -876.3796809759267 -1282.6846032545159C-335.4656145563647 -2175.5451282470613 297.7483930956241 -4078.428397008147 957.353666177477 -4020.9397988009587C1616.9589392593298 -3963.4512005937704 2048.2781979976426 -2257.3875558863133 2289.725629816964 -1006.7393318600189C2531.1730616362856 243.9088921662751 2500.773181554978 767.8408958869632 2116.301338910218 1982.1716765252586 "></path><path d="M2222.2353709866566 -956.4992823055877C2455.059680241002 249.48293371976797 2425.7455101625983 754.7030801647161 2055.0048047551522 1925.6649043516445C1684.2640993477057 3096.626728538572 1080.8710628971935 4682.616659414705 442.67998503091167 4664.11747379167C-195.51109283537085 4645.6182881686345 -589.7933569532947 2752.3893322531467 -1008.3123690029998 1836.8688133610722C-1426.8313810527047 921.3482944689977 -1603.1941100718288 907.0061036924335 -1566.2112728076766 269.61898310971264C-1529.228435543524 -367.76813747300866 -1352.3904570396369 -361.61671633603964 -830.7947501350593 -1222.5893654359952C-309.1990432304817 -2083.56201453595 301.40017843393616 -3918.485166555568 937.4481203342939 -3863.0497325700653C1573.4960622346525 -3807.614298584562 1989.4110617323108 -2162.481498330943 2222.2353709866566 -956.4992823055877C2455.059680241002 249.48293371976797 2425.7455101625983 754.7030801647161 2055.0048047551522 1925.6649043516445 "></path><path d="M2154.7451731915057 -906.2582561886561C2378.946359880875 255.057951835759 2350.717899805375 741.5662410049708 1993.7083316352418 1869.1591087405313C1636.6987634651082 2996.751976476091 1055.6536172535043 4524.001539541996 441.09924597486224 4506.187508942037C-173.45512530378005 4488.373478342077 -553.1343426025219 2665.2641133864217 -956.1526505022376 1783.6517618607195C-1359.1709584019536 902.0394103350181 -1529.0017344944436 888.2284118094376 -1493.3886319437781 274.4482216186698C-1457.775529393113 -339.33196857209896 -1287.487105648629 -333.40837784761015 -785.2097582590359 -1162.4931510549745C-282.9324108694425 -1991.5779242623385 305.05202480740445 -3758.5409595404894 917.5426355262675 -3705.1586897766715C1530.0332462451306 -3651.776420012854 1930.5439865021353 -2067.574464213072 2154.7451731915057 -906.2582561886561C2378.946359880875 255.057951835759 2350.717899805375 741.5662410049708 1993.7083316352418 1869.1591087405313 "></path><path d="M2087.255097466667 -856.01747421235C2302.833161591061 260.6327258111278 2275.6904115184648 728.4291577045997 1932.4119805856444 1812.6530689887923C1589.1335496528236 2896.876980272984 1030.4362936801272 4365.386175528663 439.5186289891253 4348.257299951778C-151.39903570187676 4331.128424374894 -516.4752061814361 2578.138650379072 -903.9928099311629 1730.4344662197436C-1291.5104136808898 882.7302820604145 -1454.8092368467455 869.4504757858185 -1420.5658690095675 279.2772159870028C-1386.3225011723891 -310.89604381181334 -1222.5836321873085 -305.20028349980566 -739.6246443126997 -1102.3971808145784C-256.66565643809076 -1899.5940781293514 308.70399325118524 -3598.5969966660355 897.6372727885537 -3547.2678911239027C1486.570552325922 -3495.9387855817704 1871.6770333422728 -1972.6676742358266 2087.255097466667 -856.01747421235C2302.833161591061 260.6327258111278 2275.6904115184648 728.4291577045997 1932.4119805856444 1812.6530689887923 "></path><path d="M2019.7647776012036 -805.7766922360433C2226.7197191606215 266.20749978649474 2200.6626790909295 715.2920744042276 1871.1153853954215 1756.1470292370532C1541.5680916999136 2797.001984069877 1005.2187259661255 4206.77081151533 437.9377678627634 4190.32709096152C-129.34319024059891 4173.883370407711 -479.8163139009755 2491.013187371721 -851.8332135007133 1677.217170578766C-1223.8501131004512 863.4211537858109 -1380.6169833396725 850.6725397621985 -1347.7433502159815 284.10621035533495C-1314.8697170922906 -282.4601190515282 -1157.680402866613 -276.9921891520007 -694.0397745069886 -1042.3012105741827C-230.39914614736404 -1807.610231996365 312.3557175543408 -3438.6530337915815 877.7316659102144 -3389.3770924711343C1443.1076142660886 -3340.101151150687 1812.8098360417848 -1877.760884258581 2019.7647776012036 -805.7766922360433C2226.7197191606215 266.20749978649474 2200.6626790909295 715.2920744042276 1871.1153853954215 1756.1470292370532 "></path><path d="M1952.2747323939434 -755.5361544003613C2150.606551388386 271.78202962123714 2125.6352213215973 702.1547469632314 1809.8190648634018 1699.6407453446882C1494.002908405207 2697.126743726145 980.0014329103265 4048.1552033613707 436.3571813946046 4032.396637830636C-107.2870701211175 4016.638072299902 -443.1571469623118 2403.887480223746 -799.6733424120605 1623.9996307971642C-1156.1895378618092 844.1117813705823 -1306.4244551743964 831.8943595979526 -1274.9205567641925 288.9349605830421C-1243.4166583539886 -254.02443843186848 -1092.7768988877144 -248.78433894482123 -648.4546300430743 -982.2054844744125C-204.13236119843418 -1715.6266300040033 316.0077165156997 -3278.7093150577525 857.8263336900786 -3231.4865379589905C1399.6449508644573 -3184.263760860229 1753.9429133995009 -1782.8543384219606 1952.2747323939434 -755.5361544003613C2150.606551388386 271.78202962123714 2125.6352213215973 702.1547469632314 1809.8190648634018 1699.6407453446882 "></path><path d="M1884.7844430460577 -705.2953724240551C2074.4931394755245 277.3568035966041 2050.6075194116397 689.0176636628594 1748.5225001907575 1643.134705592949C1446.4374809698747 2597.251747523039 954.7838957139024 3889.5398393480364 434.77635078582057 3874.4664288403774C-85.23119414226107 3859.3930183327193 -406.4982241642733 2316.762017216395 -747.5137154640328 1570.7823351561865C-1088.5292067637924 824.8026530959778 -1232.2321711497455 813.1164235743327 -1202.0980074530287 293.76395495137467C-1171.963843756312 -225.5885136715833 -1027.8736390494407 -220.57624459701674 -602.869729719785 -922.1095142340164C-177.86582039012933 -1623.642783871017 319.6594713364334 -3118.7653521832985 837.9207573293179 -3073.595739306222C1356.182043322202 -3028.4261264291454 1695.075746616591 -1687.947548444715 1884.7844430460577 -705.2953724240551C2074.4931394755245 277.3568035966041 2050.6075194116397 689.0176636628594 1748.5225001907575 1643.134705592949 "></path><path d="M1817.294245250907 -655.0550787289985C1998.3798191153978 282.93108929072196 1975.579909054417 675.8800920812382 1687.2260270708475 1586.628177559959C1398.8721450872777 2497.376263038682 929.5664500702133 3730.923987053452 433.1956117297714 3716.535731568869C-63.17522661067051 3702.1474760842857 -369.8392098135 2229.6360659277943 -695.3539969632707 1517.5645512339588C-1020.8687841130412 805.4930365401233 -1158.03979557236 794.3379992694622 -1129.2753665891303 298.5924610384568C-1100.5109376059006 -197.15307719254815 -962.9702876584329 -192.36863853046134 -557.2847378437614 -862.0140322748707C-151.59918802908987 -1531.6594260192803 323.3113177099017 -2958.8218775900946 818.0152725212911 -2915.7054289347034C1312.719227332681 -2872.588980279312 1636.2086713864155 -1593.0412467487195 1817.294245250907 -655.0550787289985C1998.3798191153978 282.93108929072196 1975.579909054417 675.8800920812382 1687.2260270708475 1586.628177559959 "></path><path d="M1749.803986420599 -604.8140526120674C1922.2664377201145 288.50610740671436 1900.5522376620374 662.7432529214916 1625.9294929157809 1530.122381948846C1351.3067481695243 2397.5015109762 904.3489433913674 3572.3088671807436 431.6148116385657 3558.6057667192354C-41.11932011423596 3544.902666257727 -333.1802564978834 2142.5108470610694 -643.1943394976647 1464.347499733607C-953.2084224974462 786.1841524061442 -1083.847481030131 775.5603073864668 -1056.4527867603883 303.4216995474144C-1029.0580924906458 -168.71690829163845 -898.0669973025811 -164.16030004203185 -511.6998070028941 -801.9178178938505C-125.3326167032069 -1439.6753357456687 326.9631030482137 -2798.8776705750156 798.1097266781089 -2757.81438614131C1269.2563503080032 -2716.751101707604 1577.3415351210842 -1498.1342126308489 1749.803986420599 -604.8140526120674C1922.2664377201145 288.50610740671436 1900.5522376620374 662.7432529214916 1625.9294929157809 1530.122381948846 "></path><path d="M1682.3137275902918 -554.5731485654487C1846.1530563248316 294.0810034523938 1825.524566269658 649.606291691433 1564.6329587607147 1473.6164642674194C1303.7413512517705 2297.6266368434053 879.1314367125215 3413.693625237722 430.03401154736 3400.6756797992884C-19.063413617801416 3387.657734360856 -296.52130318226637 2055.385506124031 -591.0346820320588 1411.1303261629419C-885.5480608818513 766.8751462018527 -1009.6551664879016 756.7824934331593 -983.6302069316462 308.2508159860595C-957.6052473753907 -140.2808614610408 -833.1637069467295 -135.9520836239144 -466.1148761620267 -741.8217255831423C-99.06604537732392 -1347.6913675423698 330.61488838652554 -2638.9335856302496 778.2041808349259 -2599.9234654182287C1225.793473283326 -2560.913345206208 1518.4743988557525 -1403.2273005832908 1682.3137275902918 -554.5731485654487C1846.1530563248316 294.0810034523938 1825.524566269658 649.606291691433 1564.6329587607147 1473.6164642674194 "></path><path d="M1614.8235297951405 -504.3327328000787C1770.0397359647045 299.65541121682463 1750.4969559124356 636.4688421801238 1503.3364856408043 1417.1100583047428C1256.1760153691735 2197.751274429361 853.9139910688323 3255.077895013451 428.4532724913106 3242.7451045980933C2.9925539137893793 3230.412314182736 -259.8622888314935 1968.2596769057436 -538.8749635312968 1357.9126643110276C-817.8876382311 747.5656517163111 -935.4627909105161 738.0041911986018 -910.8075660677479 313.07944414345457C-886.1523412249796 -111.84530291169267 -768.2603555557214 -107.74435548704741 -420.52988428600304 -681.7261215536837C-72.79941301628469 -1255.7078876203204 334.26673475999405 -2478.989988966733 758.298696026899 -2442.0330329763974C1182.3306572938045 -2405.076076986062 1459.607323625577 -1308.3208768169825 1614.8235297951405 -504.3327328000787C1770.0397359647045 299.65541121682463 1750.4969559124356 636.4688421801238 1503.3364856408043 1417.1100583047428 "></path><path d="M1547.3333319999897 -454.09207289408505C1693.9264156045779 305.2300631218791 1675.4693455552124 623.3316368094402 1442.0400125208944 1360.6038964826907C1208.6106794865764 2097.876156155942 828.6965454251426 3096.462408929804 426.8725334352612 3084.8147735375223C25.04852144537972 3073.1671381452406 -223.20327448072032 1881.1340918280812 -486.71524503053456 1304.6952465997379C-750.2272155803488 728.256401371395 -861.2704153331307 719.2261331046693 -837.9849252038496 317.90831644147465C-814.6994350745683 -83.40950022172046 -703.3570041647135 -79.53638320955542 -374.9448924099795 -621.6302733836008C-46.53278065524546 -1163.7241635576465 337.9185811334621 -2319.0461481625916 738.3932112188727 -2284.1423563939416C1138.8678413042835 -2249.2385646252915 1400.740248395402 -1213.4142089100494 1547.3333319999897 -454.09207289408505C1693.9264156045779 305.2300631218791 1675.4693455552124 623.3316368094402 1442.0400125208944 1360.6038964826907 "></path><path d="M1479.8432867927295 -403.8514129880914C1617.8132478323414 310.804715026934 1600.4418877858802 610.194431438756 1380.7436919888746 1304.0977346606396C1161.0454961918695 1998.0010378825227 803.4792523693438 2937.8469228461563 425.29194696710283 2926.8844424769504C47.10464156486114 2915.9219621077445 -186.54410754205662 1794.0085067504187 -434.5553739418817 1251.4778288884481C-682.566640341707 708.947151026478 -787.0778871678547 700.4480750107364 -765.1621317520605 322.7371887394943C-743.2463763362666 -54.97369753174826 -638.4535001858148 -51.32841093206298 -329.3597479460652 -561.5344252135176C-20.265995706315607 -1071.7404394949724 341.5705800948208 -2159.10230735845 718.4878789987367 -2126.2516798114852C1095.4051779026527 -2093.401052264521 1341.8733257531171 -1118.5075410031166 1479.8432867927295 -403.8514129880914C1617.8132478323414 310.804715026934 1600.4418877858802 610.194431438756 1380.7436919888746 1304.0977346606396 "></path><path d="M1412.3529974448438 -353.6102648008473C1541.6998359194804 316.3798552132389 1525.4141858759226 597.0577143493219 1319.4471273162303 1247.5920611198376C1113.4800687565375 1898.1264078903532 778.2617151729203 2779.2319250437604 423.7111163583188 2768.9545996976303C69.16051754371756 2758.6772743514985 -149.88518474401792 1706.883409954005 -382.3957469938541 1198.2608994584084C-614.9063092436902 689.6383889628119 -712.8856031432035 681.6705051980539 -692.3395824408967 327.5665493187644C-671.7935617385897 -26.537406560525596 -573.5502403475414 -23.119950373320535 -283.77484762277595 -501.4380887621844C6.000545101989246 -979.7562271510483 345.2223349155547 -1999.1579782730587 698.5823026379758 -1968.3605149477794C1051.9422703603968 -1937.5630516224999 1283.0061589702073 -1023.6003848149335 1412.3529974448438 -353.6102648008473C1541.6998359194804 316.3798552132389 1525.4141858759226 597.0577143493219 1319.4471273162303 1247.5920611198376 "></path><path d="M1344.862830167271 -303.3698490354782C1465.5865460769319 321.9542629776688 1450.386606036278 583.9202648380128 1258.150684713898 1191.0856551571605C1065.9147633915186 1798.2510454763083 753.0443000468088 2620.6161948194886 422.1304078198475 2611.0240244964334C91.21651559288648 2601.4318541733783 -113.22613987566683 1619.7575807357175 -330.2359979755138 1145.0432376064937C-547.2458560753607 670.3288944772698 -638.69319704824 662.892202963496 -619.5169110594202 332.395177476159C-600.3406250706005 1.8981519888220646 -508.64685843895523 5.087777763546455 -238.1898252291743 -441.3424847327267C32.2672079806066 -887.7727472289994 348.8742118066011 -1839.2143816095422 678.6768483475275 -1810.470082505948C1008.479484888454 -1781.725783402354 1224.1391142576103 -928.6939610486254 1344.862830167271 -303.3698490354782C1465.5865460769319 321.9542629776688 1450.386606036278 583.9202648380128 1258.150684713898 1191.0856551571605 "></path><path d="M1277.3726323721203 -253.1289449888593C1389.4732257168048 327.52915902334826 1375.3589956790547 570.7833036079542 1196.854211593988 1134.5797374757344C1018.3494275089213 1698.3761713435142 727.8268544031193 2462.0009528764667 420.5496687637983 2453.0939375764874C113.27248312447728 2444.186922276507 -76.56712552489375 1532.6322397986796 -278.0762794747516 1091.8260640358285C-479.58543342460956 651.0198882729778 -564.5008214708546 644.1143890101876 -546.6942701955219 337.22429391480364C-528.8877189201893 30.33419881941927 -443.7435070479473 33.29599418166367 -192.60483335315075 -381.2463924220185C58.53384034164594 -795.7887790257005 352.5260581800694 -1679.2702966647757 658.771363539501 -1652.579161782867C965.0166688989325 -1625.8880269009583 1165.2720390274349 -833.7870490010673 1277.3726323721203 -253.1289449888593C1389.4732257168048 327.52915902334826 1375.3589956790547 570.7833036079542 1196.854211593988 1134.5797374757344 "></path><path d="M1209.8824040593909 -202.88852922349042C1313.3598748390996 333.1035667877786 1300.3313548042538 557.645854096645 1135.5577079564998 1078.0733315130578C970.7840611087458 1598.5008089294697 702.6093782418518 2303.385222652196 418.96889919017076 2295.1633623752914C135.3284201384896 2286.941502098387 -39.90814169169869 1445.5064105803917 -225.9165914915676 1038.6084021839142C-411.9250412914365 631.7103937874367 -490.3084764110472 625.3360867756305 -473.8716598492017 342.0529220721987C-457.4348432873562 58.76975736876716 -378.84018617451744 61.50372231853089 -147.01987199470523 -321.1507883925601C84.80044218510704 -703.8052991036511 356.1778740359596 -1519.3267000012595 638.8658482138962 -1494.688729341036C921.5538223918334 -1470.0507586808124 1106.4049332796815 -738.8806252347592 1209.8824040593909 -202.88852922349042C1313.3598748390996 333.1035667877786 1300.3313548042538 557.645854096645 1135.5577079564998 1078.0733315130578 "></path><path d="M1142.3922062642398 -152.64786931749632C1237.2465544789732 338.6782186928333 1225.3037444470308 544.5086487259609 1074.2612348365897 1021.5671696910058C923.2187252261483 1498.6256906560507 677.3919325981622 2144.7697365685494 417.38816013412134 2137.23303131472C157.3843876700804 2129.696326060891 -3.2491273409257246 1358.3808255027288 -173.7568729908055 985.3909844726245C-344.2646186406853 612.4011434425202 -416.1161008336618 606.5580286816976 -401.0490189853034 346.8817943702186C-385.981937136945 87.2055600587396 -313.9368347835094 89.71169459602288 -101.43488011868158 -261.05494022247694C111.06707454614627 -611.8215750409772 359.82972040942764 -1359.382859197118 618.9603634058699 -1336.7980527585798C878.0910064023119 -1314.2132463200414 1047.5378580495064 -643.9739573278262 1142.3922062642398 -152.64786931749632C1237.2465544789732 338.6782186928333 1225.3037444470308 544.5086487259609 1074.2612348365897 1021.5671696910058 "></path><path d="M1074.9020084690885 -102.40696527087744C1161.1332341188463 344.25311473851343 1150.2761340898078 531.3716874959018 1012.9647617166795 965.0612520095792C875.6533893435512 1398.7508165232562 652.1744869544727 1986.154494625528 415.8074210780719 1979.302944394774C179.44035520167108 1972.4513941640198 33.40988700984735 1271.255484565691 -121.5971544900433 932.1738109019598C-276.60419598993406 593.0921372382281 -341.9237252562763 587.7802147283896 -328.22637812140505 351.71091080886345C-314.5290309865338 115.64160688933703 -249.03348339250147 117.91991101414033 -55.849888242657926 -200.958847911769C137.33370690718561 -519.8376068376781 363.4815667828959 -1199.4387742523518 599.0548785978435 -1178.9071320354988C834.6281904127907 -1158.3754898186457 988.6707828193312 -549.0670452802682 1074.9020084690885 -102.40696527087744C1161.1332341188463 344.25311473851343 1150.2761340898078 531.3716874959018 1012.9647617166795 965.0612520095792 "></path><path d="M1007.4118106739375 -52.16624432972685C1085.0199137587194 349.8278276787248 1075.248523732585 518.2345431603744 951.6682885967693 908.5551512226839C828.0880534609539 1298.875759284993 626.9570413107833 1827.539069577038 414.2266820220225 1821.3726743693592C201.49632273326188 1815.2062791616804 70.06890136062043 1184.1299605231843 -69.4374359892812 878.9564542258263C-208.94377333918283 573.782947928468 -267.73134967889087 569.0022176696134 -255.40373725750675 356.5398441420398C-243.07612483612263 144.07747061446616 -184.1301320014935 146.1279443267888 -10.264896366634275 -140.86293870652935C163.60033926822484 -427.8538217398477 367.1334131563642 -1039.494872413054 579.1493937898167 -1021.0163944178863C791.1653744232694 -1002.5379164227186 929.8037075891557 -454.16031633817875 1007.4118106739375 -52.16624432972685C1085.0199137587194 349.8278276787248 1075.248523732585 518.2345431603744 951.6682885967693 908.5551512226839 "></path><path d="M939.9215518436304 -1.9257064940456985C1008.9065323634363 355.402357513467 1000.2208523402057 505.097215719378 890.3717544417029 852.0488673303198C780.5226565432004 1199.0005189412614 601.7395346319377 1668.9234614230782 412.64588193081704 1663.4422212384752C223.5522292296962 1657.9609810538723 106.72785467623726 1097.0042533752094 -17.277778523675238 825.7389144442241C-141.28341172358785 554.473575513239 -193.5390351366617 550.2240375053682 -182.5811574287647 361.36859436974714C-171.62327972086769 172.51315123412587 -119.2268416456418 174.3357945339685 35.32003447423301 -80.76721260675868C189.86691059410782 -335.8702197474862 370.785198494676 -879.5511536792251 559.2438479466341 -863.1258399057426C747.702497398592 -846.7005261322604 870.9365713238242 -359.2537705015583 939.9215518436304 -1.9257064940456985C1008.9065323634363 355.402357513467 1000.2208523402057 505.097215719378 890.3717544417029 852.0488673303198 "></path><path d="M872.4314150836356 48.31507548226091C932.7932730384659 360.9771314888344 925.193303018139 491.9601324190064 829.075342356949 795.5428275785803C732.9573816957593 1099.1255227381544 576.5221500234043 1510.3080974097443 411.06520390992375 1505.5120122482167C245.60825779644324 1500.7159270866891 143.38693006216658 1009.8787903678585 34.88200101224311 772.5216188032468C-73.62292803768037 535.1644472386349 -119.34659852412 531.446101481748 -109.75845552971009 366.1975887380795C-100.17031253530024 200.94907599441103 -54.32342921947759 202.54388888177323 80.9050873854128 -20.671242366363458C216.1336039903033 -243.8863736144997 374.43710590330056 -719.6071908047711 539.3384241737638 -705.235041252974C704.239742444227 -690.862891701177 812.0695571288052 -264.3469805243127 872.4314150836356 48.31507548226091C932.7932730384659 360.9771314888344 925.193303018139 491.9601324190064 829.075342356949 795.5428275785803 "></path><path d="M804.9412172884845 98.55585745856729C856.6799526783389 366.5519054642018 850.165692660916 478.823049118635 767.7788692370391 739.0367878268414C685.392045813162 999.2505265350474 551.304704379715 1351.6927333964104 409.48446485387444 1347.5818032579582C267.6642253280338 1343.470873119506 180.04594441293966 922.7533273605084 87.04171951300526 719.3043231622696C-5.962505386929195 515.8553189640309 -45.154222946734535 512.6681654581278 -36.93581466581179 371.02658310641186C-28.717406384889046 229.3850007546962 10.57992217153037 230.75198322957795 126.49007926143645 39.42472787403244C242.40023635134253 -151.90252748151306 378.08895227676885 -559.6632279303172 519.4329393657372 -547.3442426002055C660.7769264547057 -535.0252572700937 753.2024818986297 -169.44019054706712 804.9412172884845 98.55585745856729C856.6799526783389 366.5519054642018 850.165692660916 478.823049118635 767.7788692370391 739.0367878268414 "></path><path d="M737.4509889757551 148.7965478821394C780.5666018006341 372.12658788683484 775.1380517861148 465.68587426552904 706.4823655995506 682.5306565223677C637.8266794129866 899.3754387792062 526.0872282184473 1193.0772778303422 407.9036952802469 1189.651502714965C289.7201623420465 1186.225727599588 216.7049282461346 835.6277728004236 139.2014074961893 666.086935968558C61.69788674624391 496.5460991366922 29.038122113072745 493.89013788177294 35.886795680508385 375.85548592200985C42.735469247944025 257.82083396224664 75.4832430449602 258.9599860246483 172.07504061988197 99.52060656169363C268.66683819480374 -59.91877290126092 381.7407681326589 -399.7193566085977 499.5274240401327 -389.4535355001712C617.3140799476063 -379.18771439174475 694.3353761508765 -74.53349212255603 737.4509889757551 148.7965478821394C780.5666018006341 372.12658788683484 775.1380517861148 465.68587426552904 706.4823655995506 682.5306565223677 "></path><path d="M669.9607606630261 199.03729934086778C704.4532509229291 377.7013313446241 700.1104109113138 452.54876044757975 645.1858619620624 626.0245862530505C590.2613130128111 799.5004120585213 500.86975205717977 1034.4618832994297 406.32292570661946 1031.7212632071282C311.77609935605904 1028.9806431148268 253.36391207932957 748.5022792754953 191.36109547937332 612.8696098100027C129.358278879417 477.23694034451 103.23046717288008 475.1121713405746 108.70940602682862 380.6844497727642C114.1883448807771 286.25672820495356 140.38656391839004 287.1680498548749 217.66000197832744 159.6165462845113C294.93344003826485 32.06504271414747 385.39258398854895 -239.77542425172192 479.621908714528 -231.56276736498074C573.8512334405069 -223.35011047823951 635.468270403123 20.37326733711143 669.9607606630261 199.03729934086778C704.4532509229291 377.7013313446241 700.1104109113138 452.54876044757975 645.1858619620624 626.0245862530505 "></path><path d="M602.4705933854532 249.27792872928364C628.3399610803804 383.2759527321009 625.0828310716689 439.4115245593175 583.8894193597305 569.5183939134207C542.6960076477919 699.6252632675237 475.6523369310685 875.8463666982052 404.74221716814816 873.7909016289791C333.83209740522784 871.735436559753 290.02295694768077 661.3766636802543 243.52084449771354 559.6521615811348C197.01873204774637 457.92765948201543 177.42287326784367 456.3340827290639 181.53207740830504 385.51329155320593C185.64128154876641 314.6925003773481 205.28994582697612 315.375991614789 263.24502437192916 219.71236393701622C321.2001029168822 124.04873625924347 389.04446087959536 -79.83161396515862 459.71645442407953 -73.67212130010273C530.3884479685638 -67.51262863504684 576.6012256905258 115.27990472646638 602.4705933854532 249.27792872928364C628.3399610803804 383.2759527321009 625.0828310716689 439.4115245593175 583.8894193597305 569.5183939134207 "></path><path d="M534.9804261078802 299.51858863527764C552.2266712378317 388.8506046371558 550.0552512320241 426.2743191886336 522.5929767573984 513.012232091369C495.13070228277275 599.7501449941044 450.43492180495707 717.2308806145586 403.161508629677 715.8605705684079C355.8880954543967 714.4902605222571 326.68200181603197 574.2510786025914 295.6805935160538 506.4347438698451C264.67918521607567 438.61840913709875 251.61527936280726 437.55602463513105 254.35474878978147 390.3421638512259C257.09421821675573 343.12830306732053 270.1933277355622 343.5839638922812 308.83004676553094 279.8082121070994C347.4667657954996 216.03246032191748 392.69633777064166 80.11222683898279 439.8110001336312 84.2185552823534C486.9256624966206 88.32488372572396 517.7341809779286 210.18657263339946 534.9804261078802 299.51858863527764C552.2266712378317 388.8506046371558 550.0552512320241 426.2743191886336 522.5929767573984 513.012232091369 "></path><path d="M467.49019779515106 349.7593095764279C476.11332036012686 394.42531757736697 475.027610357223 413.1371748531059 461.29647311991016 456.50613130447357C447.5653358825973 499.87508775584126 425.2174456436895 558.6154555660684 401.5807390560494 557.930300542993C377.9440324684093 557.2451455199176 363.3409856492269 487.12555456008477 347.84028149923785 453.2173871937116C332.33957734924877 419.30921982733844 325.80762442261454 418.7780275763546 327.1773591361017 395.171097184402C328.5470938495888 371.5641667924493 335.09664860899204 371.79199720492966 354.4150081239764 339.90412131233876C373.7333676389608 308.0162454197478 396.34815362653177 240.05612867828046 419.90548480802653 242.10929289996574C443.46281598952123 244.16245712165107 458.86707523017526 305.0933015754888 467.49019779515106 349.7593095764279C476.11332036012686 394.42531757736697 475.027610357223 413.1371748531059 461.29647311991016 456.50613130447357 "></path></g></svg>